#!OML:ASF X:\für Bonn\!DataBase\2005_08_10_Bjorn_Final\c3d\bjorn.ASF
:FULLY-SPECIFIED
:DEGREES
643
root 0.588004 1.61591 18.1403 -442.028 -175.18 -714.403
lowerback -10.2489 0.691084 -3.41938
upperback 0.271962 1.38732 -3.57623
thorax 6.05344 0.562974 -1.62303
lowerneck -11.675 -6.50143 -3.51099
upperneck 1.15362 -8.85433 6.45247
head 2.93044 -4.34581 2.16434
rclavicle 2.06736e-014 -3.62782e-014
rhumerus -239.564 -220.548 86.0155
rradius 119.933
rwrist -18.7569
rhand -16.9549 11.8958
rfingers 7.12502
rthumb 9.27882 -17.88
lclavicle 2.06736e-014 -3.62782e-014
lhumerus -54.4937 -62.2121 94.0756
lradius 111.211
lwrist 24.7231
lhand -15.6813 -375.516
lfingers 7.12502
lthumb 10.5076 14.2013
rfemur -18.1431 -23.7305 11.5094
rtibia 29.6414
rfoot 6.26128 -1.05546
rtoes 12.3047
lfemur 163.044 178.174 165.366
ltibia 24.6285
lfoot 2.67874 3.84988
ltoes 14.6941
644
root 0.588741 1.61482 18.1403 -442.047 -175.195 -714.374
lowerback -10.2285 0.6656 -3.43867
upperback 0.289282 1.35645 -3.56742
thorax 6.05946 0.547648 -1.60777
lowerneck -11.7185 -6.46794 -3.40695
upperneck 1.12288 -8.81596 6.36635
head 2.91435 -4.32833 2.11901
rclavicle -1.59028e-014 2.65378e-014
rhumerus -239.66 -220.82 85.6039
rradius 119.725
rwrist -18.8367
rhand -16.9716 11.8355
rfingers 7.12502
rthumb 9.26279 -17.941
lclavicle -1.59028e-014 2.65378e-014
lhumerus -54.822 -62.3067 94.4732
lradius 111.15
lwrist 24.8827
lhand -15.8595 -375.572
lfingers 7.12502
lthumb 10.3357 14.1539
rfemur -18.115 -23.7887 11.5233
rtibia 29.6316
rfoot 6.22481 -1.06344
rtoes 12.2264
lfemur 163.06 178.13 165.399
ltibia 24.6263
lfoot 2.61947 3.93241
ltoes 14.753
645
root 0.58902 1.6133 18.1402 -442.074 -175.195 -714.336
lowerback -10.1987 0.621865 -3.48402
upperback 0.304976 1.30389 -3.5405
thorax 6.05734 0.521191 -1.56206
lowerneck -11.7204 -6.43343 -3.39339
upperneck 1.07323 -8.76761 6.3474
head 2.89311 -4.30525 2.11434
rclavicle -6.36111e-014 5.77469e-014
rhumerus -239.749 -221.144 85.2027
rradius 119.493
rwrist -18.9249
rhand -16.9852 11.7516
rfingers 7.12502
rthumb 9.2496 -18.0255
lclavicle -6.36111e-014 5.77469e-014
lhumerus -55.1391 -62.3501 94.8854
lradius 111.088
lwrist 25.0523
lhand -16.035 -375.624
lfingers 7.12502
lthumb 10.1663 14.1099
rfemur -18.0678 -23.8018 11.5037
rtibia 29.617
rfoot 6.15179 -1.13616
rtoes 12.3266
lfemur 163.082 178.164 165.419
ltibia 24.6294
lfoot 2.51764 4.06755
ltoes 14.8582
646
root 0.589103 1.61244 18.141 -442.092 -175.212 -714.315
lowerback -10.177 0.590825 -3.50122
upperback 0.313621 1.26475 -3.52006
thorax 6.05324 0.502086 -1.53687
lowerneck -11.7332 -6.39942 -3.3424
upperneck 1.05541 -8.724 6.29997
head 2.88118 -4.28436 2.09253
rclavicle 1.90833e-014 1.63997e-014
rhumerus -239.86 -221.441 84.8032
rradius 119.292
rwrist -19.0378
rhand -17.0136 11.6918
rfingers 7.12502
rthumb 9.22221 -18.0865
lclavicle 1.90833e-014 1.63997e-014
lhumerus -55.509 -62.3911 95.3228
lradius 111.055
lwrist 25.2015
lhand -16.2058 -375.66
lfingers 7.12502
lthumb 10.0016 14.0825
rfemur -18.0409 -23.841 11.5108
rtibia 29.6069
rfoot 6.07839 -1.18342
rtoes 12.2887
lfemur 163.101 178.207 165.451
ltibia 24.6302
lfoot 2.41734 4.18885
ltoes 14.7509
647
root 0.589474 1.61111 18.1409 -442.119 -175.226 -714.275
lowerback -10.1539 0.554986 -3.54006
upperback 0.339801 1.22287 -3.48962
thorax 6.06634 0.480873 -1.48951
lowerneck -11.7981 -6.36443 -3.28795
upperneck 1.04193 -8.67637 6.22692
head 2.87853 -4.26106 2.0604
rclavicle -1.59028e-015 4.57205e-015
rhumerus -239.916 -221.744 84.4513
rradius 119.066
rwrist -19.1182
rhand -17.0664 11.6262
rfingers 7.12502
rthumb 9.17129 -18.1544
lclavicle -1.59028e-015 4.57205e-015
lhumerus -55.796 -62.4496 95.7134
lradius 110.999
lwrist 25.3653
lhand -16.4093 -375.716
lfingers 7.12502
lthumb 9.80527 14.0358
rfemur -17.9933 -23.8525 11.5122
rtibia 29.5914
rfoot 6.00468 -1.27722
rtoes 12.3779
lfemur 163.119 178.244 165.487
ltibia 24.632
lfoot 2.33331 4.30954
ltoes 14.8175
648
root 0.589548 1.61009 18.1419 -442.121 -175.227 -714.249
lowerback -10.1654 0.517563 -3.57753
upperback 0.360258 1.18029 -3.46834
thorax 6.09325 0.459058 -1.45252
lowerneck -11.845 -6.32999 -3.25598
upperneck 1.04102 -8.63115 6.19945
head 2.88117 -4.2382 2.04764
rclavicle 2.06736e-014 -1.15295e-014
rhumerus -239.983 -222.035 84.0773
rradius 118.828
rwrist -19.1997
rhand -17.1074 11.5925
rfingers 7.12502
rthumb 9.13171 -18.1898
lclavicle 2.06736e-014 -1.15295e-014
lhumerus -56.0629 -62.5044 96.0691
lradius 110.955
lwrist 25.5491
lhand -16.5778 -375.762
lfingers 7.12502
lthumb 9.64267 13.9977
rfemur -17.9752 -23.9002 11.5087
rtibia 29.5769
rfoot 5.954 -1.34282
rtoes 12.4104
lfemur 163.118 178.255 165.5
ltibia 24.6359
lfoot 2.27795 4.36544
ltoes 14.8108
649
root 0.589984 1.60954 18.1421 -442.14 -175.243 -714.23
lowerback -10.1516 0.485066 -3.60356
upperback 0.378714 1.14129 -3.44371
thorax 6.10395 0.439574 -1.41797
lowerneck -11.8752 -6.28648 -3.19725
upperneck 1.00712 -8.57455 6.14224
head 2.86545 -4.21113 2.02187
rclavicle 6.36111e-015 -5.45664e-014
rhumerus -240.049 -222.343 83.7209
rradius 118.615
rwrist -19.3121
rhand -17.1626 11.5647
rfingers 7.12502
rthumb 9.07845 -18.2199
lclavicle 6.36111e-015 -5.45664e-014
lhumerus -56.3467 -62.5376 96.4452
lradius 110.92
lwrist 25.7328
lhand -16.7558 -375.804
lfingers 7.12502
lthumb 9.47099 13.9634
rfemur -17.9287 -23.8109 11.5055
rtibia 29.5644
rfoot 5.79508 -1.48831
rtoes 12.7227
lfemur 163.138 178.346 165.537
ltibia 24.6368
lfoot 2.17178 4.51362
ltoes 14.8642
650
root 0.589997 1.60897 18.1418 -442.173 -175.245 -714.199
lowerback -10.1257 0.452081 -3.63994
upperback 0.398726 1.10219 -3.4203
thorax 6.10936 0.419742 -1.37894
lowerneck -11.9042 -6.26213 -3.19029
upperneck 1.00332 -8.53903 6.11661
head 2.86584 -4.19327 2.014
rclavicle -2.22639e-014 1.58034e-014
rhumerus -240.107 -222.625 83.3779
rradius 118.378
rwrist -19.4495
rhand -17.2174 11.5957
rfingers 7.12502
rthumb 9.02561 -18.1912
lclavicle -2.22639e-014 1.58034e-014
lhumerus -56.648 -62.5858 96.8583
lradius 110.872
lwrist 25.9535
lhand -16.9128 -375.845
lfingers 7.12502
lthumb 9.31946 13.9286
rfemur -17.8707 -23.8576 11.4861
rtibia 29.5517
rfoot 5.71671 -1.55638
rtoes 12.8881
lfemur 163.166 178.357 165.551
ltibia 24.6406
lfoot 2.12133 4.57021
ltoes 14.9765
651
root 0.590435 1.60747 18.1421 -442.173 -175.247 -714.18
lowerback -10.1137 0.422197 -3.689
upperback 0.400391 1.0678 -3.39713
thorax 6.10307 0.401678 -1.33219
lowerneck -11.9273 -6.22435 -3.13195
upperneck 1.00408 -8.4897 6.04853
head 2.86056 -4.16931 1.98405
rclavicle 2.54444e-014 -1.93815e-014
rhumerus -240.225 -222.921 82.9893
rradius 118.165
rwrist -19.6104
rhand -17.3345 11.5886
rfingers 7.12502
rthumb 8.91257 -18.2031
lclavicle 2.54444e-014 -1.93815e-014
lhumerus -56.9857 -62.6347 97.277
lradius 110.859
lwrist 26.1896
lhand -17.0328 -375.87
lfingers 7.12502
lthumb 9.20368 13.9092
rfemur -17.8557 -23.8708 11.4843
rtibia 29.5364
rfoot 5.6248 -1.67123
rtoes 13.2312
lfemur 163.156 178.353 165.563
ltibia 24.6473
lfoot 2.09348 4.61744
ltoes 14.9661
652
root 0.590185 1.60633 18.142 -442.193 -175.263 -714.15
lowerback -10.0987 0.390518 -3.70268
upperback 0.416998 1.02835 -3.37769
thorax 6.11172 0.382395 -1.31009
lowerneck -11.9416 -6.19245 -3.10521
upperneck 0.985357 -8.44734 6.02247
head 2.85167 -4.14869 1.97357
rclavicle -1.59028e-014 9.64106e-015
rhumerus -240.309 -223.196 82.6327
rradius 117.94
rwrist -19.7425
rhand -17.4238 11.6303
rfingers 7.12502
rthumb 8.82637 -18.1651
lclavicle -1.59028e-014 9.64106e-015
lhumerus -57.2619 -62.6915 97.642
lradius 110.841
lwrist 26.4148
lhand -17.2243 -375.847
lfingers 7.12502
lthumb 9.01892 13.9398
rfemur -17.8102 -23.9007 11.4879
rtibia 29.5237
rfoot 5.52314 -1.77839
rtoes 13.4844
lfemur 163.17 178.353 165.594
ltibia 24.654
lfoot 2.05639 4.65028
ltoes 15.1523
653
root 0.590673 1.60584 18.1423 -442.204 -175.279 -714.14
lowerback -10.0865 0.362543 -3.73321
upperback 0.422479 0.994671 -3.34717
thorax 6.10961 0.365354 -1.26588
lowerneck -11.9441 -6.15962 -3.10459
upperneck 0.965515 -8.40088 6.01384
head 2.84253 -4.12569 1.97414
rclavicle 3.81667e-014 -3.70733e-014
rhumerus -240.403 -223.484 82.2652
rradius 117.69
rwrist -19.8777
rhand -17.5495 11.6751
rfingers 7.12502
rthumb 8.70507 -18.1254
lclavicle 3.81667e-014 -3.70733e-014
lhumerus -57.6096 -62.7198 98.0848
lradius 110.817
lwrist 26.6045
lhand -17.3987 -375.826
lfingers 7.12502
lthumb 8.85064 13.9686
rfemur -17.7793 -23.8869 11.4902
rtibia 29.5122
rfoot 5.38545 -1.91831
rtoes 13.6778
lfemur 163.18 178.356 165.623
ltibia 24.6573
lfoot 2.02497 4.69355
ltoes 15.1522
654
root 0.590282 1.60447 18.1429 -442.224 -175.283 -714.112
lowerback -10.0651 0.325283 -3.78273
upperback 0.435289 0.950857 -3.30524
thorax 6.10978 0.342837 -1.20057
lowerneck -11.9603 -6.12505 -3.09534
upperneck 0.95779 -8.34796 5.95475
head 2.8363 -4.09973 1.95643
rclavicle 1.59028e-014 -1.91827e-014
rhumerus -240.509 -223.79 81.9234
rradius 117.488
rwrist -20.0302
rhand -17.6978 11.7003
rfingers 7.12502
rthumb 8.56199 -18.1061
lclavicle 1.59028e-014 -1.91827e-014
lhumerus -57.9024 -62.7453 98.5001
lradius 110.782
lwrist 26.8057
lhand -17.5502 -375.803
lfingers 7.12502
lthumb 8.70441 13.9972
rfemur -17.7311 -23.9166 11.4771
rtibia 29.4943
rfoot 5.2671 -2.04568
rtoes 13.6489
lfemur 163.192 178.452 165.643
ltibia 24.6704
lfoot 1.93806 4.79692
ltoes 15.2995
